<?xml version="1.0" encoding="UTF-8"?>
<svg id="Layer_1" data-name="Layer 1" xmlns="http://www.w3.org/2000/svg" viewBox="0 0 1036.5 1067">
  <defs>
    <style>
      .cls-1 {
        fill: #fff;
      }
    </style>
  </defs>
  <path class="cls-1" d="M543.7,1067h-52c-1.4-.7-2.9-1.4-4.4-2.1-10-4.4-20.6-7.9-30-13.3-25.1-14.6-44.5-35.4-61.1-58.8-27.6-38.9-47-82-61.7-127.2-1.7-5.2-3.8-5.9-8.6-4.7-37.5,8.7-75.5,12.5-113.9,12.6-20.8,.1-41.5-1.8-62-6.2-16.4-3.4-32.5-7.3-47.2-15.5-43.4-24.1-67.3-60-66.2-110.7,.7-32.2,10.3-62.2,24.4-90.9,16.9-34.4,38.9-65.5,63.3-95,5.8-7,11.8-13.9,17.7-20.8-1.1-1.4-1.8-2.3-2.5-3.2-16-20.4-33-40.2-47.9-61.4-25.2-35.8-45.1-74.3-52.6-118.1-4-23-3.6-45.8,4-68.1,10.4-30.5,31.8-51.7,59.3-66.8,25.1-13.8,53.1-18.9,81.2-20.8,48.2-3.4,96.1,.7,143.3,11.7,3.8,.9,5.8,0,7.1-3.9,2.4-7.8,5.2-15.5,8.1-23.1,16.3-43.5,36.8-84.6,66.5-120.7,22.1-26.9,48-48.6,82.7-57.3,2-.5,3.7-1.8,5.6-2.7h48c1.8,1.2,3.6,2.8,5.5,3.7,11.4,5.4,23.6,9.5,34.1,16.2,32,20.6,54.5,50.2,73.7,82.3,19.1,32,33.7,66.1,44.8,101.7,1.3,4.1,3.3,4.7,7,4,11.6-2.2,23.3-3.8,34.9-6.1,23.5-4.6,47.2-6.2,71-6.6,35.6-.6,70.6,2.5,104.1,15.3,30.7,11.7,54.6,32,69.1,61.8,14,28.5,13.4,58.7,6.9,89-8,37-25.4,70-45.9,101.4-15.7,24.2-33.4,47-52.7,68.4-2,2.2-2.7,3.9-.4,6.7,12.9,15.6,26.2,31.1,38.3,47.4,27.4,37.1,50.5,76.5,60.7,122.2,4.4,20,5.6,40.2,2.3,60.5-4.9,29.9-21.3,52.6-44.4,71.2-25.5,20.5-55.9,27.9-87.1,31.5-21.6,2.5-43.5,2.5-65.3,2.2-16.3-.2-32.5-2.3-48.7-4.4-14.8-1.9-29.5-5-44.2-7.7-3.2-.6-4.5,.3-5.4,3.3-1.7,6.1-3.5,12.1-5.7,18-17.4,47-39.1,91.7-71.8,130.1-15.7,18.4-33.6,34.3-55.7,44.8-8.7,3.8-17.5,6.7-26.2,10.1Zm120-849.6c-.1-1.4,.1-2.8-.3-4-3.1-8.2-6.3-16.4-9.7-24.6-5.9-14.1-11.4-28.5-18.1-42.2-6.4-12.9-14-25.2-21.4-37.7-10.2-17.3-23.6-32-38.5-45.2-6.7-5.9-14.8-10.4-22.8-14.7-5.3-2.9-11.2-4.8-17-6.4-6.4-1.7-13-3.4-19.5-3.4-5.6,0-11.2,2.7-16.9,3.6-10.6,1.6-19.8,6.8-28.1,12.7-17.8,12.5-32.7,28.2-44.4,46.3-10.6,16.4-19.6,33.8-29,50.9-3.5,6.3-6.4,13-9.1,19.6-4,9.7-7.6,19.5-11.3,29.3-1.9,5.2-3.6,10.4-5.5,16,4.6,1,8.3,1.5,11.9,2.6,9.8,3.1,19.4,6.5,29.1,9.8,8.9,3,18,5.6,26.8,8.7,15.3,5.4,30.7,10.6,45.8,16.6,10.4,4.1,20.4,9.2,30.6,13.8,.9,.4,2.3,.9,3.1,.6,11.8-5,23.6-10.2,35.5-15.2,8-3.3,16.1-6.4,24.3-9.4,8.9-3.3,17.9-6.5,26.8-9.7,7-2.5,13.9-5,21-7.3,5.7-1.8,11.5-3.2,17.3-4.9,6.2-1.8,12.5-3.7,19.4-5.8Zm36.3,152c-3.9-19.7-7.5-38.3-11.3-56.9-3.8-18.5-7.9-37-12-56.2-36.1,12.3-71.5,24.3-106.8,36.3,0,.5,.1,1,.1,1.5,44.7,22.2,87.5,47.4,130,75.3ZM38.3,497.6C15.1,496,.1,517,0,534c-.1,18.6,16.6,37.4,37.6,37.5,21.1,.1,38-17.7,38-36.9,.2-19.4-15.2-38.1-37.3-37Zm960.1,73.5c21.3,0,38.1-16.1,38.1-36.5,.1-18.3-16.5-37.5-38.3-37.2-19,.3-37.1,16.2-37,37.2,0,20.2,17.6,38.3,37.2,36.5Zm-665.5,40.5c1.2,12,2,20.2,2.8,28.4,.1,.7,.5,1.6,1,1.9,3.1,2.1,6.3,4.1,9.4,6.2,9,6,18,12,27.1,17.9,8.9,5.9,17.6,12,26.8,17.5,11,6.7,22.3,13.1,33.6,19.4,15.2,8.5,30.5,16.9,46,24.9,11.9,6.2,24.2,11.9,36.3,17.6,1.3,.6,3.4,.6,4.7-.1,13.3-6.5,26.6-13,39.7-19.7,11.6-6,23.2-12,34.6-18.4,12.8-7.2,25.5-14.7,38.1-22.2,4.4-2.6,8.8-5.3,13.1-8.1,8-5.2,16-10.5,24-15.7,9.6-6.3,19.2-12.6,28.8-19,.7-.5,1.5-1.3,1.6-2,.8-4.3,1.7-8.7,2-13,.8-12.7,1.5-25.4,2-38.1,.5-10.6,.7-21.2,1-31.8,.3-7.9,1-15.9,.9-23.8-.2-9.9-1.4-19.7-1.8-29.6-.8-20.5-1.3-41-2.1-61.6-.2-4.5-1.2-9.1-2-13.5-.2-1-1.3-2.1-2.3-2.7-18.1-12.1-36.1-24.4-54.6-36-15.3-9.6-30.9-18.9-46.9-27.4-25.1-13.4-50.7-26.2-76.1-39-1.4-.7-3.9-.4-5.4,.3-4.5,2-8.9,4.6-13.3,6.8-15,7.5-30.2,14.9-45.2,22.6-9.6,5-19,10.4-28.5,15.7-10.4,5.9-20.8,11.8-31,18-8.5,5.2-16.7,11.1-25.1,16.6-9.3,6.1-18.7,12.1-28,18.2-5.3,3.5-9.1,6.8-9,14.8,.2,12.7-2.7,25.4-3.4,38.1-.9,15.6-1,31.2-1.1,46.8,0,10.6,.7,21.2,.9,31.8,.7,20.7,1.1,41.4,1.4,58.2Zm324.4,243.5c-3.2-.5-5.7-.7-8.1-1.4-8.6-2.5-17.1-5.1-25.7-7.7-5-1.5-10.1-3-15-4.8-8.7-3.2-17.3-6.9-26-10.1-8.4-3-17.1-5.2-25.4-8.5-10.7-4.3-21-9.6-31.6-14.1-2.9-1.2-6.6-2.8-9.2-1.9-7.3,2.3-14.2,5.9-21.4,8.9-11.1,4.6-22.1,9.4-33.3,13.5-14.9,5.4-30,10.3-45.1,15.2-11.1,3.6-22.3,6.7-33.5,10-2.2,.7-4.1,1.7-3,4.5,1.8,4.5,3.8,8.9,5.6,13.3,6.5,15.7,12.4,31.7,19.8,47,6.4,13.2,14.3,25.7,21.9,38.2,9.7,16,21.8,30.2,35.8,42.6,5.7,5,12.1,9.5,18.8,13.1,7.4,4,15.4,7.2,23.5,9.8,4.3,1.4,9.2,1.7,13.8,1.4,5.1-.3,10.1-1.9,15.1-3,15.1-3.5,27.9-11.5,39.2-21.5,15.5-13.6,27.8-30,38.9-47.5,11.7-18.3,20.7-37.9,29.8-57.4,5.8-12.5,9.9-25.6,15.1-39.6Zm6.4-637.7c-6.9,2-13.3,3.9-19.6,5.8-5.7,1.7-11.6,3-17.3,4.9-7,2.2-14,4.8-21,7.3-8.9,3.2-17.9,6.4-26.8,9.7-8.1,3-16.3,6.1-24.3,9.4-11.9,4.9-23.6,10.2-35.5,15.2-.8,.3-2.2-.1-3.1-.6-10.2-4.6-20.2-9.8-30.6-13.8-15.1-5.9-30.5-11.2-45.8-16.6-8.9-3.1-17.9-5.8-26.8-8.7-9.7-3.2-19.4-6.6-29.1-9.8-3.5-1.1-7.2-1.6-11.9-2.6,1.9-5.6,3.6-10.9,5.5-16,3.7-9.8,7.3-19.6,11.3-29.3,2.7-6.7,5.7-13.3,9.1-19.6,9.4-17.1,18.5-34.5,29-50.9,11.9-18.1,26.8-33.8,44.5-46.2,8.3-5.9,17.5-11.1,28.1-12.7,5.7-.8,11.3-3.6,16.9-3.6,6.5,0,13.1,1.7,19.5,3.4,5.8,1.6,11.8,3.5,17,6.4,7.9,4.3,16,8.8,22.8,14.7,14.9,13.2,28.3,27.9,38.5,45.2,7.3,12.4,15,24.7,21.4,37.7,6.8,13.7,12.2,28.1,18.1,42.2,3.4,8.1,6.5,16.3,9.7,24.6,.5,1.1,.3,2.5,.4,3.9Zm60.6,599.2c5.7,1.5,11.3,3.2,17.1,4.3,8.6,1.6,17.3,3.1,26,4,15.5,1.6,31.1,3.5,46.6,3.9,13.7,.4,27.4-1.1,41.1-1.8,.3,0,.7-.1,1-.2,8.5-1.9,17-3.7,25.4-5.8,8.2-2.1,16.5-4.1,24.3-7.1,13.6-5.3,24.5-14.6,33.8-25.6,4-4.7,6.6-10.7,9-16.4,2.2-5.1,3.9-10.6,4.5-16.1,1-8,1.8-16.2,1.1-24.1-.7-7.6-3.6-15-5.5-22.5-1.4-5.4-2.6-11-4.7-16.2-3.1-7.6-6.6-15.1-10.4-22.3-6-11.4-11.7-23.1-18.8-33.8-11.1-16.5-23.3-32.3-35.3-48.3-3.9-5.2-8.5-9.9-12.6-14.7-14.1,12.9-27.8,25.6-41.7,38-10.1,9-20.1,18.1-30.6,26.5-13.8,10.9-28.2,21.1-42.4,31.7-.7,.5-1.3,1.6-1.4,2.4-.8,6-1.4,12-2.1,18-.7,6.3-1.3,12.7-2.3,19-1,6.4-2.5,12.7-3.6,19.1-1.2,6.9-2,13.9-3.3,20.8-1.7,8.2-3.9,16.3-5.6,24.5-2.2,10.6-4,21.2-6.2,31.8-.9,3.8-2.3,7.3-3.4,10.9Zm142.5-321.3c3.2-3.9,6.2-7.4,9-11,8.4-10.7,17.3-21,25-32.1,9.9-14.3,19.2-29,27.8-44,5.5-9.6,9.7-20,13.9-30.2,2.6-6.4,4.6-13.1,6.3-19.8,2.2-8.6,4.6-17.2,5.5-26,1-10-.1-20-3.5-29.8-2.8-8.1-6.3-15.6-11.6-22.1-16.3-19.7-38.3-29.4-62.7-34.3-5.2-1-10.6-1.5-15.9-2.1-12.4-1.4-24.7-3.2-37.1-3.8-7.5-.4-15,1.6-22.6,1.7-13.2,.2-26.1,1.6-39.1,4-12.6,2.3-25.3,3.7-38.5,5.6,1.1,1.7,1.9,2.5,2.1,3.3,2.1,8.7,4.1,17.5,6.1,26.3,.8,3.6,1.4,7.3,2.1,11,.8,4.8,1.4,9.7,2.3,14.5,1.8,9.2,4,18.4,5.7,27.6,1.4,7.5,2.3,15.2,3.5,22.8,1.2,8.4,2.8,16.7,3.5,25.1,.6,7.8,.4,15.6,8.6,20,2.6,1.4,4.9,3.3,7.2,5.1,11.8,9.4,23.7,18.6,35.3,28.3,15.6,13.2,30.9,26.7,46.2,40.2,7,6.3,13.7,12.9,20.9,19.7ZM312.3,251.6c-4.5-.6-8.6-1-12.7-1.7-10-1.9-20-4.5-30.1-5.7-15.5-1.9-31.1-3.5-46.6-3.9-13.8-.4-27.7,1-41.5,1.9-4.7,.3-9.4,1.1-14,2.2-7.3,1.7-14.6,3.6-21.8,5.8-6.5,2-13.1,4.1-19.3,7-10.9,5.2-20.1,13-28.2,22-10,11.1-14.7,24.7-16.3,39-1.5,13.9,.7,27.6,5.7,40.9,4.1,10.9,6.9,22.3,11.7,32.8,9.7,21.1,21.7,40.9,35.4,59.6,11,15,23,29.3,34.6,44.1,5.6-5.1,10.8-9.6,15.9-14.3,10.2-9.5,20.2-19.1,30.5-28.4,5-4.5,10.4-8.5,15.6-12.8,7.7-6.3,15.4-12.8,23.2-19,6.9-5.4,14.2-10.5,21.2-15.8,3.5-2.6,8.7-5,9.6-8.5,2.5-9,3.2-18.6,4.4-27.9,.9-6.8,1-13.8,2.2-20.5,1.9-10.9,4.5-21.6,6.8-32.4,2.1-10,4-19.9,6-29.9,.7-3.6,1.4-7.3,2.1-10.9,.8-4.3,1.5-8.6,2.5-12.8,.8-3.6,1.9-6.8,3.1-10.8Zm-.4,565c-1.1-4.3-2.3-8.4-3.2-12.6-1.6-7.3-2.9-14.6-4.4-21.8-1.8-8.2-3.9-16.3-5.6-24.5-1.7-8.6-3.3-17.2-4.6-25.9-1.6-10.5-3-21-4.4-31.5-.8-6.3-1.3-12.7-2.1-19-.4-3-1.2-6-2-9-.3-.9-1.3-1.7-2.1-2.4-3.7-2.7-7.6-5.1-11.2-7.9-10.3-8.1-20.7-16.1-30.7-24.6-17.6-14.9-34.9-30.1-52.2-45.2-6.7-5.9-13.1-12.1-19.7-18.3-3.1,3.7-6.1,7.1-9,10.6-8.4,10.6-17.4,20.9-25.1,32.1-9.9,14.3-19.1,29-27.8,44-5.5,9.6-9.8,19.9-14.1,30.1-2.6,6.3-4,13.2-6.3,19.7-3.7,10.4-6,20.9-5.7,31.9,.2,5.3,.9,10.7,2,15.9,1.2,5.8,2.2,11.8,4.8,17,11.3,22.8,31.2,35.6,54.4,43.7,8.1,2.8,16.7,4.5,25.1,6,7.4,1.3,15,1.5,22.5,2.2,2.1,.2,4.2,.5,6.4,.6,8.9,.5,17.8,1.6,26.7,1.1,13.4-.7,26.8-2.4,40.1-3.8,6.3-.6,12.7-1.3,19-2.1,4.3-.5,8.7-1.1,13-2,5.5-1.3,10.9-2.9,16.2-4.3Zm518.6-282.1c-24.9-22-48.9-43.3-73.8-65.3v130.6c24.9-22.1,49-43.3,73.8-65.3Zm-550.8,65.2v-130.4c-24.9,22.1-48.9,43.3-73.6,65.2,24.9,22,48.9,43.3,73.6,65.2Zm65.2,113.6c1.2,7.4,2.5,16,3.9,24.6,.7,4,1.4,8,2.4,11.9,1.8,7.5,3.9,14.9,5.5,22.4,1.6,7.2,2.7,14.5,4.2,21.8,.5,2.5,1.1,5,2,7.4,.4,1.1,2.1,2.6,2.9,2.4,5.2-1.1,10.4-2.4,15.5-4.1,7.3-2.4,14.4-5.2,21.6-7.6,9.5-3.2,19.2-6.1,28.7-9.5,6.9-2.4,13.7-5.4,19.7-7.8-35.5-20.4-71.3-41.1-106.4-61.5Zm-.2-357.4c34.8-20.2,70.9-41.1,106.4-61.7-5.3-2.2-11.3-4.9-17.5-7.1-8.4-3-17-5.5-25.5-8.4-7.4-2.5-14.7-5.3-22.1-7.6-6.1-1.9-12.5-3.1-18.5-5.3-3.4-1.2-4.4-.6-4.8,2.9-.5,4.2-1.5,8.3-2.5,12.4-1,4-2.5,7.9-3.3,11.9-1,4.6-1.2,9.4-2.2,14-1.8,8.3-4.1,16.6-5.8,24.9-1.8,8.5-3.1,17.1-4.2,24Zm355.3,13.5c-42.5-27.9-85.3-53.1-129.9-75.2,0-.5-.1-1-.1-1.5,35.4-12,70.7-24,106.8-36.3,4.1,19.2,8.2,37.7,12,56.2,3.7,18.5,7.3,37.1,11.2,56.8Zm-115.1,405.4c8.5,3.2,17.7,6.7,26.9,10.2,6.4,2.4,12.9,4.8,19.4,6.9,5.5,1.8,11.1,3,16.6,4.7,7.7,2.3,15.3,4.9,22.9,7.2,.7,.2,2.6-1,2.8-1.9,1.6-6.5,2.8-13.1,4.2-19.7,.8-4,1.5-8,2.4-11.9,1.1-5.1,2.5-10.2,3.6-15.3,.9-4.5,1.4-9,2.3-13.5,2-9.8,4.1-19.5,5.9-28.3-35.5,20.4-71.4,41.1-107,61.6ZM0,534c-.1,18.6,16.6,37.4,37.6,37.5,21.1,.1,38-17.7,38-36.9,.1-19.4-15.3-38.1-37.4-37C15.1,496,.1,517,0,534Zm1036.5,.6c.1-18.3-16.5-37.5-38.3-37.2-19,.3-37.1,16.2-37,37.2,.1,20.3,17.7,38.4,37.3,36.6,21.2-.1,37.9-16.2,38-36.6Zm-703.6,77c-.4-16.9-.7-37.5-1.2-58.2-.2-10.6-.9-21.2-.9-31.8,.1-15.6,.2-31.2,1.1-46.8,.7-12.7,3.6-25.4,3.4-38.1-.1-7.9,3.7-11.3,9-14.8,9.3-6.1,18.7-12.1,28-18.2,8.4-5.5,16.5-11.3,25.1-16.6,10.2-6.3,20.6-12.1,31-18,9.4-5.4,18.8-10.7,28.5-15.7,15-7.7,30.1-15,45.2-22.6,4.5-2.2,8.8-4.8,13.3-6.8,1.6-.7,4-1.1,5.4-.3,25.4,12.9,51,25.6,76.1,39,16,8.5,31.6,17.8,46.9,27.4,18.4,11.6,36.4,23.9,54.6,36,1,.6,2.1,1.7,2.3,2.7,.9,4.5,1.8,9,2,13.5,.8,20.5,1.3,41,2.1,61.6,.4,9.9,1.6,19.7,1.8,29.6,.2,7.9-.6,15.9-.9,23.8-.4,10.6-.6,21.2-1,31.8-.6,12.7-1.2,25.4-2,38.1-.3,4.4-1.2,8.7-2,13-.1,.8-.9,1.6-1.6,2-9.6,6.4-19.2,12.7-28.8,19-8,5.2-15.9,10.5-24,15.7-4.3,2.8-8.7,5.5-13.1,8.1-12.7,7.5-25.3,15-38.1,22.2-11.4,6.4-23,12.4-34.6,18.4-13.2,6.8-26.4,13.3-39.7,19.7-1.3,.6-3.4,.7-4.7,.1-12.2-5.7-24.4-11.4-36.3-17.6-15.5-8.1-30.7-16.5-46-24.9-11.3-6.3-22.6-12.6-33.6-19.4-9.1-5.5-17.9-11.7-26.8-17.5-9-6-18-12-27.1-17.9-3.1-2.1-6.3-4-9.4-6.2-.5-.4-1-1.3-1-1.9-1-8.2-1.8-16.3-3-28.4Zm316.3,242.1c-8.6-2.5-17.1-5.1-25.7-7.7-5-1.5-10.1-3-15-4.8-8.7-3.2-17.3-6.9-26-10.1-8.4-3-17.1-5.2-25.4-8.5-10.7-4.3-21-9.6-31.6-14.1-2.9-1.2-6.6-2.8-9.2-1.9-7.3,2.3-14.2,5.9-21.4,8.9-11.1,4.6-22.1,9.4-33.3,13.5-14.9,5.4-30,10.3-45.1,15.2-11.1,3.6-22.3,6.7-33.5,10-2.2,.7-4.1,1.7-3,4.5,1.8,4.5,3.8,8.9,5.6,13.3,6.5,15.7,12.4,31.7,19.8,47,6.4,13.2,14.3,25.7,21.9,38.2,9.7,16,21.8,30.2,35.8,42.6,5.7,5,12.1,9.5,18.8,13.1,7.4,4,15.4,7.2,23.5,9.8,4.3,1.4,9.2,1.7,13.8,1.4,5.1-.3,10.1-1.9,15.1-3,15.1-3.5,27.9-11.5,39.2-21.5,15.5-13.6,27.8-30,38.9-47.5,11.7-18.3,20.7-37.9,29.8-57.4,5.8-12.3,9.8-25.5,15.1-39.4-3.1-.7-5.7-.9-8.1-1.6ZM476.1,142.7h-1.3c1,5.9,1.3,12,3,17.7,4.9,16.1,20.5,25.9,35.6,26.5,5.8,.2,11.7-1.2,17.5-1.8,10.9-1.1,17.6-8.5,23.8-16.4,6.3-8,5.7-17.5,6.2-27,.4-10.2-1.8-19.1-8.3-26.8-7.2-8.6-15.8-14.9-27.8-14.9-3.3,0-6.7,.3-10,0-11.4-1.1-20.4,3.7-28,11.5-8.3,8.5-13.3,18.6-10.7,31.2Zm265.3,678.2c8.6,1.6,17.3,3.1,26,4,15.5,1.6,31.1,3.5,46.6,3.9,13.7,.4,27.4-1.1,41.1-1.8,.3,0,.7-.1,1-.2,8.5-1.9,17-3.7,25.4-5.8,8.2-2.1,16.5-4.1,24.3-7.1,13.6-5.3,24.5-14.6,33.8-25.6,4-4.7,6.6-10.7,9-16.4,2.2-5.1,3.9-10.6,4.5-16.1,1-8,1.8-16.2,1.1-24.1-.7-7.6-3.6-15-5.5-22.5-1.4-5.4-2.6-11-4.7-16.2-3.1-7.6-6.6-15.1-10.4-22.3-6-11.4-11.7-23.1-18.8-33.8-11.1-16.5-23.3-32.3-35.3-48.3-3.9-5.2-8.5-9.9-12.6-14.7-14.1,12.9-27.8,25.6-41.7,38-10.1,9-20.1,18.1-30.6,26.5-13.8,10.9-28.2,21.1-42.4,31.7-.7,.5-1.3,1.6-1.4,2.4-.8,6-1.4,12-2.1,18-.7,6.3-1.3,12.7-2.3,19-1,6.4-2.5,12.7-3.6,19.1-1.2,6.9-2,13.9-3.3,20.8-1.7,8.2-3.9,16.3-5.6,24.5-2.2,10.6-4,21.2-6.2,31.8-.8,3.7-2.2,7.3-3.3,10.8,5.5,1.5,11.2,3.3,17,4.4ZM299.6,249.9c-10-1.9-20-4.5-30.1-5.7-15.5-1.9-31.1-3.5-46.6-3.9-13.8-.4-27.7,1-41.5,1.9-4.7,.3-9.4,1.1-14,2.2-7.3,1.7-14.6,3.6-21.8,5.8-6.5,2-13.1,4.1-19.3,7-10.9,5.2-20.1,13-28.2,22-10,11.1-14.7,24.7-16.3,39-1.5,13.9,.7,27.6,5.7,40.9,4.1,10.9,6.9,22.3,11.7,32.8,9.7,21.1,21.7,40.9,35.4,59.6,11,15,23,29.3,34.6,44.1,5.6-5.1,10.8-9.6,15.9-14.3,10.2-9.5,20.2-19.1,30.5-28.4,5-4.5,10.4-8.5,15.6-12.8,7.7-6.3,15.4-12.8,23.2-19,6.9-5.4,14.2-10.5,21.2-15.8,3.5-2.6,8.7-5,9.6-8.5,2.5-9,3.2-18.6,4.4-27.9,.9-6.8,1-13.8,2.2-20.5,1.9-10.9,4.5-21.6,6.8-32.4,2.1-10,4-19.9,6-29.9,.7-3.6,1.4-7.3,2.1-10.9,.8-4.3,1.5-8.6,2.5-12.8,.8-3.3,1.9-6.5,3.1-10.4-4.5-1-8.6-1.4-12.7-2.1Zm12.3,566.7c-5.3,1.4-10.7,3-16.1,4.2-4.3,.9-8.6,1.5-13,2-6.3,.8-12.7,1.5-19,2.1-13.4,1.3-26.7,3.1-40.1,3.8-8.9,.4-17.8-.7-26.7-1.1-2.1-.1-4.2-.4-6.4-.6-7.5-.7-15.1-.9-22.5-2.2-8.5-1.5-17-3.2-25.1-6-23.2-8.1-43-20.9-54.4-43.7-2.6-5.2-3.6-11.2-4.8-17-1.1-5.2-1.8-10.6-2-15.9-.4-11,2-21.6,5.7-31.9,2.3-6.5,3.7-13.3,6.3-19.7,4.3-10.2,8.6-20.6,14.1-30.1,8.7-15,18-29.7,27.8-44,7.7-11.2,16.6-21.5,25.1-32.1,2.8-3.6,5.9-7,9-10.6,6.6,6.2,13,12.4,19.7,18.3,17.3,15.2,34.7,30.3,52.2,45.2,10,8.5,20.4,16.5,30.7,24.6,3.6,2.8,7.5,5.3,11.2,7.9,.9,.6,1.9,1.4,2.1,2.4,.9,2.9,1.6,6,2,9,.8,6.3,1.3,12.7,2.1,19,1.4,10.5,2.8,21,4.4,31.5,1.3,8.7,2.9,17.3,4.6,25.9,1.7,8.2,3.8,16.3,5.6,24.5,1.6,7.3,2.9,14.6,4.4,21.8,.8,4.3,2,8.4,3.1,12.7Zm444.8-347.4v130.6c24.9-22,49-43.3,73.8-65.3-24.8-22-48.9-43.3-73.8-65.3Zm-477,.1c-24.9,22.1-48.9,43.3-73.6,65.2,24.9,22,48.9,43.3,73.6,65.1v-130.3Zm69.1,268.7c.7,4,1.4,8,2.4,11.9,1.8,7.5,3.9,14.9,5.5,22.4,1.6,7.2,2.7,14.5,4.2,21.8,.5,2.5,1.1,5,2,7.4,.4,1.1,2.1,2.6,2.9,2.4,5.2-1.1,10.4-2.4,15.5-4.1,7.3-2.4,14.4-5.2,21.6-7.6,9.5-3.2,19.2-6.1,28.7-9.5,6.9-2.4,13.7-5.4,19.7-7.8-35.3-20.4-71.1-41.2-106.2-61.5,.9,7.4,2.3,16,3.7,24.6Zm263,47c6.4,2.4,12.9,4.8,19.4,6.9,5.5,1.8,11.1,3,16.6,4.7,7.7,2.3,15.3,4.9,22.9,7.2,.7,.2,2.6-1,2.8-1.9,1.6-6.5,2.8-13.1,4.2-19.7,.8-4,1.5-8,2.4-11.9,1.1-5.1,2.5-10.2,3.6-15.3,.9-4.5,1.4-9,2.3-13.5,2-9.8,4.1-19.5,5.9-28.3-35.5,20.5-71.4,41.2-107,61.7,8.4,3.1,17.6,6.7,26.9,10.1Zm34.1-250.4c-.5-38.9-15.7-71.3-44.5-96.9-20.5-18.2-45.1-28.6-72.5-30.5-43.5-3.1-80.2,12.3-108.6,45.3-17.4,20.2-27.6,44.5-29.5,71.3-3,43.1,12.3,79.3,44.4,107.8,20.5,18.2,45.3,28.5,72.8,30.3,43.4,3,80-12.4,108-45.3,19.7-23.3,30.2-50.9,29.9-82ZM476.1,142.7c-2.6-12.6,2.4-22.7,10.7-31.2,7.6-7.8,16.6-12.6,28-11.5,3.3,.3,6.7,.1,10,0,12-.1,20.6,6.3,27.8,14.9,6.5,7.7,8.7,16.6,8.3,26.8-.4,9.5,.1,19-6.2,27-6.2,7.9-12.9,15.2-23.8,16.4-5.8,.6-11.7,2-17.5,1.8-15.1-.6-30.7-10.4-35.6-26.5-1.7-5.7-2-11.8-3-17.7h1.3ZM180.6,767.9c10.4,1.5,19.5-2.7,27.1-10.5,6.1-6.3,10.2-13.7,11-22.8,2.3-25.9-17.3-42.8-37.7-42.8-24.1,0-39.1,17.5-39.3,38.4-.2,20.4,16.9,39.9,38.9,37.7Zm420.8-330.3c-20.5-18.2-45.1-28.6-72.5-30.5-43.5-3.1-80.2,12.3-108.6,45.3-17.4,20.2-27.6,44.5-29.5,71.3-3,43.1,12.3,79.3,44.4,107.8,20.5,18.2,45.3,28.5,72.8,30.3,43.4,3,80-12.4,108-45.3,19.7-23.2,30.2-50.8,29.9-82-.5-38.8-15.6-71.2-44.5-96.9ZM207.7,757.4c6.1-6.3,10.2-13.7,11-22.8,2.3-25.9-17.3-42.8-37.7-42.8-24.1,0-39.1,17.5-39.3,38.4-.2,20.4,16.9,39.9,38.9,37.7,10.5,1.5,19.6-2.7,27.1-10.5Z"/>
</svg>